<svg width="138" height="18" viewBox="0 0 138 18" fill="none" xmlns="http://www.w3.org/2000/svg">
<path d="M3.832 1.88C5.016 1.88 6.05067 2.10933 6.936 2.568C7.832 3.016 8.52 3.66667 9 4.52C9.49067 5.36267 9.736 6.34933 9.736 7.48C9.736 8.61067 9.49067 9.592 9 10.424C8.52 11.256 7.832 11.896 6.936 12.344C6.05067 12.7813 5.016 13 3.832 13H0.2V1.88H3.832ZM3.832 11.512C5.13333 11.512 6.13067 11.16 6.824 10.456C7.51733 9.752 7.864 8.76 7.864 7.48C7.864 6.18933 7.51733 5.18133 6.824 4.456C6.13067 3.73067 5.13333 3.368 3.832 3.368H2.024V11.512H3.832ZM19.6238 8.376C19.6238 8.70667 19.6024 9.00533 19.5598 9.272H12.8238C12.8771 9.976 13.1384 10.5413 13.6078 10.968C14.0771 11.3947 14.6531 11.608 15.3358 11.608C16.3171 11.608 17.0104 11.1973 17.4158 10.376H19.3837C19.1171 11.1867 18.6318 11.8533 17.9278 12.376C17.2344 12.888 16.3704 13.144 15.3358 13.144C14.4931 13.144 13.7358 12.9573 13.0638 12.584C12.4024 12.2 11.8798 11.6667 11.4958 10.984C11.1224 10.2907 10.9358 9.49067 10.9358 8.584C10.9358 7.67733 11.1171 6.88267 11.4798 6.2C11.8531 5.50667 12.3704 4.97333 13.0318 4.6C13.7038 4.22667 14.4718 4.04 15.3358 4.04C16.1678 4.04 16.9091 4.22133 17.5598 4.584C18.2104 4.94667 18.7171 5.45867 19.0798 6.12C19.4424 6.77067 19.6238 7.52267 19.6238 8.376ZM17.7198 7.8C17.7091 7.128 17.4691 6.58933 16.9998 6.184C16.5304 5.77867 15.9491 5.576 15.2558 5.576C14.6264 5.576 14.0878 5.77867 13.6398 6.184C13.1918 6.57867 12.9251 7.11733 12.8398 7.8H17.7198ZM24.6188 13.144C23.9254 13.144 23.3014 13.0213 22.7468 12.776C22.2028 12.52 21.7708 12.1787 21.4508 11.752C21.1308 11.3147 20.9601 10.8293 20.9388 10.296H22.8268C22.8588 10.6693 23.0348 10.984 23.3548 11.24C23.6854 11.4853 24.0961 11.608 24.5868 11.608C25.0988 11.608 25.4934 11.512 25.7708 11.32C26.0588 11.1173 26.2028 10.8613 26.2028 10.552C26.2028 10.2213 26.0428 9.976 25.7228 9.816C25.4134 9.656 24.9174 9.48 24.2348 9.288C23.5734 9.10667 23.0348 8.93067 22.6188 8.76C22.2028 8.58933 21.8401 8.328 21.5308 7.976C21.2321 7.624 21.0828 7.16 21.0828 6.584C21.0828 6.11467 21.2214 5.688 21.4988 5.304C21.7761 4.90933 22.1708 4.6 22.6828 4.376C23.2054 4.152 23.8028 4.04 24.4748 4.04C25.4774 4.04 26.2828 4.296 26.8908 4.808C27.5094 5.30933 27.8401 5.99733 27.8828 6.872H26.0588C26.0268 6.47733 25.8668 6.16267 25.5788 5.928C25.2908 5.69333 24.9014 5.576 24.4108 5.576C23.9308 5.576 23.5628 5.66667 23.3068 5.848C23.0508 6.02933 22.9228 6.26933 22.9228 6.568C22.9228 6.80267 23.0081 7 23.1788 7.16C23.3494 7.32 23.5574 7.448 23.8028 7.544C24.0481 7.62933 24.4108 7.74133 24.8908 7.88C25.5308 8.05067 26.0534 8.22667 26.4588 8.408C26.8748 8.57867 27.2321 8.83467 27.5308 9.176C27.8294 9.51733 27.9841 9.97067 27.9948 10.536C27.9948 11.0373 27.8561 11.4853 27.5788 11.88C27.3014 12.2747 26.9068 12.584 26.3948 12.808C25.8934 13.032 25.3014 13.144 24.6188 13.144ZM29.3576 8.584C29.3576 7.67733 29.539 6.88267 29.9016 6.2C30.275 5.50667 30.787 4.97333 31.4376 4.6C32.0883 4.22667 32.835 4.04 33.6776 4.04C34.7443 4.04 35.6243 4.296 36.3176 4.808C37.0216 5.30933 37.4963 6.02933 37.7416 6.968H35.7736C35.6136 6.53067 35.3576 6.18933 35.0056 5.944C34.6536 5.69867 34.211 5.576 33.6776 5.576C32.931 5.576 32.3336 5.84267 31.8856 6.376C31.4483 6.89867 31.2296 7.63467 31.2296 8.584C31.2296 9.53333 31.4483 10.2747 31.8856 10.808C32.3336 11.3413 32.931 11.608 33.6776 11.608C34.7336 11.608 35.4323 11.144 35.7736 10.216H37.7416C37.4856 11.112 37.0056 11.8267 36.3016 12.36C35.5976 12.8827 34.723 13.144 33.6776 13.144C32.835 13.144 32.0883 12.9573 31.4376 12.584C30.787 12.2 30.275 11.6667 29.9016 10.984C29.539 10.2907 29.3576 9.49067 29.3576 8.584ZM41.3834 5.464C41.65 5.016 42.002 4.66933 42.4394 4.424C42.8874 4.168 43.4154 4.04 44.0234 4.04V5.928H43.5594C42.8447 5.928 42.3007 6.10933 41.9274 6.472C41.5647 6.83467 41.3834 7.464 41.3834 8.36V13H39.5594V4.184H41.3834V5.464ZM46.628 3.016C46.2973 3.016 46.02 2.904 45.796 2.68C45.572 2.456 45.46 2.17867 45.46 1.848C45.46 1.51733 45.572 1.24 45.796 1.016C46.02 0.791999 46.2973 0.679999 46.628 0.679999C46.948 0.679999 47.22 0.791999 47.444 1.016C47.668 1.24 47.78 1.51733 47.78 1.848C47.78 2.17867 47.668 2.456 47.444 2.68C47.22 2.904 46.948 3.016 46.628 3.016ZM47.524 4.184V13H45.7V4.184H47.524ZM51.7428 5.496C52.0521 5.06933 52.4734 4.72267 53.0068 4.456C53.5508 4.17867 54.1534 4.04 54.8148 4.04C55.5934 4.04 56.2974 4.22667 56.9268 4.6C57.5561 4.97333 58.0521 5.50667 58.4148 6.2C58.7774 6.88267 58.9588 7.66667 58.9588 8.552C58.9588 9.43733 58.7774 10.232 58.4148 10.936C58.0521 11.6293 57.5508 12.1733 56.9108 12.568C56.2814 12.952 55.5828 13.144 54.8148 13.144C54.1321 13.144 53.5241 13.0107 52.9908 12.744C52.4681 12.4773 52.0521 12.136 51.7428 11.72V13H49.9188V1.16H51.7428V5.496ZM57.1028 8.552C57.1028 7.944 56.9748 7.42133 56.7188 6.984C56.4734 6.536 56.1428 6.2 55.7268 5.976C55.3214 5.74133 54.8841 5.624 54.4148 5.624C53.9561 5.624 53.5188 5.74133 53.1028 5.976C52.6974 6.21067 52.3668 6.552 52.1108 7C51.8654 7.448 51.7428 7.976 51.7428 8.584C51.7428 9.192 51.8654 9.72533 52.1108 10.184C52.3668 10.632 52.6974 10.9733 53.1028 11.208C53.5188 11.4427 53.9561 11.56 54.4148 11.56C54.8841 11.56 55.3214 11.4427 55.7268 11.208C56.1428 10.9627 56.4734 10.6107 56.7188 10.152C56.9748 9.69333 57.1028 9.16 57.1028 8.552ZM68.8425 8.376C68.8425 8.70667 68.8212 9.00533 68.7785 9.272H62.0425C62.0958 9.976 62.3572 10.5413 62.8265 10.968C63.2958 11.3947 63.8718 11.608 64.5545 11.608C65.5358 11.608 66.2292 11.1973 66.6345 10.376H68.6025C68.3358 11.1867 67.8505 11.8533 67.1465 12.376C66.4532 12.888 65.5892 13.144 64.5545 13.144C63.7118 13.144 62.9545 12.9573 62.2825 12.584C61.6212 12.2 61.0985 11.6667 60.7145 10.984C60.3412 10.2907 60.1545 9.49067 60.1545 8.584C60.1545 7.67733 60.3358 6.88267 60.6985 6.2C61.0718 5.50667 61.5892 4.97333 62.2505 4.6C62.9225 4.22667 63.6905 4.04 64.5545 4.04C65.3865 4.04 66.1278 4.22133 66.7785 4.584C67.4292 4.94667 67.9358 5.45867 68.2985 6.12C68.6612 6.77067 68.8425 7.52267 68.8425 8.376ZM66.9385 7.8C66.9278 7.128 66.6878 6.58933 66.2185 6.184C65.7492 5.77867 65.1678 5.576 64.4745 5.576C63.8452 5.576 63.3065 5.77867 62.8585 6.184C62.4105 6.57867 62.1438 7.11733 62.0585 7.8H66.9385ZM82.7298 4.184L77.3218 17.144H75.4338L77.2258 12.856L73.7538 4.184H75.7858L78.2658 10.904L80.8418 4.184H82.7298ZM87.9303 13.144C87.0983 13.144 86.3463 12.9573 85.6743 12.584C85.0023 12.2 84.4743 11.6667 84.0903 10.984C83.7063 10.2907 83.5143 9.49067 83.5143 8.584C83.5143 7.688 83.7116 6.89333 84.1063 6.2C84.5009 5.50667 85.0396 4.97333 85.7223 4.6C86.4049 4.22667 87.1676 4.04 88.0103 4.04C88.8529 4.04 89.6156 4.22667 90.2983 4.6C90.9809 4.97333 91.5196 5.50667 91.9143 6.2C92.3089 6.89333 92.5063 7.688 92.5063 8.584C92.5063 9.48 92.3036 10.2747 91.8983 10.968C91.4929 11.6613 90.9383 12.2 90.2343 12.584C89.5409 12.9573 88.7729 13.144 87.9303 13.144ZM87.9303 11.56C88.3996 11.56 88.8369 11.448 89.2423 11.224C89.6583 11 89.9943 10.664 90.2503 10.216C90.5063 9.768 90.6343 9.224 90.6343 8.584C90.6343 7.944 90.5116 7.40533 90.2663 6.968C90.0209 6.52 89.6956 6.184 89.2903 5.96C88.8849 5.736 88.4476 5.624 87.9783 5.624C87.5089 5.624 87.0716 5.736 86.6663 5.96C86.2716 6.184 85.9569 6.52 85.7223 6.968C85.4876 7.40533 85.3703 7.944 85.3703 8.584C85.3703 9.53333 85.6103 10.2693 86.0903 10.792C86.5809 11.304 87.1943 11.56 87.9303 11.56ZM102.293 4.184V13H100.469V11.96C100.181 12.3227 99.8027 12.6107 99.3334 12.824C98.8747 13.0267 98.384 13.128 97.8614 13.128C97.168 13.128 96.544 12.984 95.9894 12.696C95.4454 12.408 95.0134 11.9813 94.6934 11.416C94.384 10.8507 94.2294 10.168 94.2294 9.368V4.184H96.0374V9.096C96.0374 9.88533 96.2347 10.4933 96.6294 10.92C97.024 11.336 97.5627 11.544 98.2454 11.544C98.928 11.544 99.4667 11.336 99.8614 10.92C100.267 10.4933 100.469 9.88533 100.469 9.096V4.184H102.293ZM106.524 5.464C106.791 5.016 107.143 4.66933 107.58 4.424C108.028 4.168 108.556 4.04 109.164 4.04V5.928H108.7C107.985 5.928 107.441 6.10933 107.068 6.472C106.705 6.83467 106.524 7.464 106.524 8.36V13H104.7V4.184H106.524V5.464ZM114.041 13.144C113.347 13.144 112.723 13.0213 112.169 12.776C111.625 12.52 111.193 12.1787 110.873 11.752C110.553 11.3147 110.382 10.8293 110.361 10.296H112.249C112.281 10.6693 112.457 10.984 112.777 11.24C113.107 11.4853 113.518 11.608 114.009 11.608C114.521 11.608 114.915 11.512 115.193 11.32C115.481 11.1173 115.625 10.8613 115.625 10.552C115.625 10.2213 115.465 9.976 115.145 9.816C114.835 9.656 114.339 9.48 113.657 9.288C112.995 9.10667 112.457 8.93067 112.041 8.76C111.625 8.58933 111.262 8.328 110.953 7.976C110.654 7.624 110.505 7.16 110.505 6.584C110.505 6.11467 110.643 5.688 110.921 5.304C111.198 4.90933 111.593 4.6 112.105 4.376C112.627 4.152 113.225 4.04 113.897 4.04C114.899 4.04 115.705 4.296 116.313 4.808C116.931 5.30933 117.262 5.99733 117.305 6.872H115.481C115.449 6.47733 115.289 6.16267 115.001 5.928C114.713 5.69333 114.323 5.576 113.833 5.576C113.353 5.576 112.985 5.66667 112.729 5.848C112.473 6.02933 112.345 6.26933 112.345 6.568C112.345 6.80267 112.43 7 112.601 7.16C112.771 7.32 112.979 7.448 113.225 7.544C113.47 7.62933 113.833 7.74133 114.313 7.88C114.953 8.05067 115.475 8.22667 115.881 8.408C116.297 8.57867 116.654 8.83467 116.953 9.176C117.251 9.51733 117.406 9.97067 117.417 10.536C117.417 11.0373 117.278 11.4853 117.001 11.88C116.723 12.2747 116.329 12.584 115.817 12.808C115.315 13.032 114.723 13.144 114.041 13.144ZM127.468 8.376C127.468 8.70667 127.446 9.00533 127.404 9.272H120.668C120.721 9.976 120.982 10.5413 121.452 10.968C121.921 11.3947 122.497 11.608 123.18 11.608C124.161 11.608 124.854 11.1973 125.26 10.376H127.227C126.961 11.1867 126.476 11.8533 125.772 12.376C125.078 12.888 124.214 13.144 123.18 13.144C122.337 13.144 121.58 12.9573 120.908 12.584C120.246 12.2 119.724 11.6667 119.34 10.984C118.966 10.2907 118.78 9.49067 118.78 8.584C118.78 7.67733 118.961 6.88267 119.324 6.2C119.697 5.50667 120.214 4.97333 120.876 4.6C121.548 4.22667 122.316 4.04 123.18 4.04C124.012 4.04 124.753 4.22133 125.404 4.584C126.054 4.94667 126.561 5.45867 126.924 6.12C127.286 6.77067 127.468 7.52267 127.468 8.376ZM125.564 7.8C125.553 7.128 125.313 6.58933 124.844 6.184C124.374 5.77867 123.793 5.576 123.1 5.576C122.47 5.576 121.932 5.77867 121.484 6.184C121.036 6.57867 120.769 7.11733 120.684 7.8H125.564ZM131.087 1.16V13H129.263V1.16H131.087ZM137.177 5.672H135.545V13H133.705V5.672H132.665V4.184H133.705V3.56C133.705 2.54667 133.972 1.81067 134.505 1.352C135.049 0.882666 135.897 0.648 137.049 0.648V2.168C136.495 2.168 136.105 2.27467 135.881 2.488C135.657 2.69067 135.545 3.048 135.545 3.56V4.184H137.177V5.672Z" fill="#212121" fill-opacity="0.3"/>
</svg>
