<svg width="82" height="14" viewBox="0 0 82 14" fill="none" xmlns="http://www.w3.org/2000/svg">
<path d="M2.36412 3.352V6.616H6.20412V8.104H2.36412V11.512H6.68412V13H0.540118V1.864H6.68412V3.352H2.36412ZM8.32274 8.552C8.32274 7.66667 8.50408 6.88267 8.86674 6.2C9.24008 5.51733 9.74141 4.98933 10.3707 4.616C11.0107 4.232 11.7201 4.04 12.4987 4.04C13.0747 4.04 13.6401 4.168 14.1947 4.424C14.7601 4.66933 15.2081 5 15.5387 5.416V1.16H17.3787V13H15.5387V11.672C15.2401 12.0987 14.8241 12.4507 14.2907 12.728C13.7681 13.0053 13.1654 13.144 12.4827 13.144C11.7147 13.144 11.0107 12.952 10.3707 12.568C9.74141 12.1733 9.24008 11.6293 8.86674 10.936C8.50408 10.232 8.32274 9.43733 8.32274 8.552ZM15.5387 8.584C15.5387 7.976 15.4107 7.448 15.1547 7C14.9094 6.552 14.5841 6.21067 14.1787 5.976C13.7734 5.74133 13.3361 5.624 12.8667 5.624C12.3974 5.624 11.9601 5.74133 11.5547 5.976C11.1494 6.2 10.8187 6.536 10.5627 6.984C10.3174 7.42133 10.1947 7.944 10.1947 8.552C10.1947 9.16 10.3174 9.69333 10.5627 10.152C10.8187 10.6107 11.1494 10.9627 11.5547 11.208C11.9707 11.4427 12.4081 11.56 12.8667 11.56C13.3361 11.56 13.7734 11.4427 14.1787 11.208C14.5841 10.9733 14.9094 10.632 15.1547 10.184C15.4107 9.72533 15.5387 9.192 15.5387 8.584ZM20.7025 3.016C20.3718 3.016 20.0945 2.904 19.8705 2.68C19.6465 2.456 19.5345 2.17867 19.5345 1.848C19.5345 1.51733 19.6465 1.24 19.8705 1.016C20.0945 0.791999 20.3718 0.679999 20.7025 0.679999C21.0225 0.679999 21.2945 0.791999 21.5185 1.016C21.7425 1.24 21.8545 1.51733 21.8545 1.848C21.8545 2.17867 21.7425 2.456 21.5185 2.68C21.2945 2.904 21.0225 3.016 20.7025 3.016ZM21.5985 4.184V13H19.7745V4.184H21.5985ZM26.1212 5.672V10.552C26.1212 10.8827 26.1959 11.1227 26.3452 11.272C26.5052 11.4107 26.7719 11.48 27.1452 11.48H28.2652V13H26.8252C26.0039 13 25.3746 12.808 24.9372 12.424C24.4999 12.04 24.2812 11.416 24.2812 10.552V5.672H23.2412V4.184H24.2812V1.992H26.1212V4.184H28.2652V5.672H26.1212ZM41.8786 5.192C41.8786 5.75733 41.7453 6.29067 41.4786 6.792C41.212 7.29333 40.7853 7.704 40.1986 8.024C39.612 8.33333 38.86 8.488 37.9426 8.488H35.9266V13H34.1026V1.88H37.9426C38.796 1.88 39.516 2.02933 40.1026 2.328C40.7 2.616 41.1426 3.01067 41.4306 3.512C41.7293 4.01333 41.8786 4.57333 41.8786 5.192ZM37.9426 7C38.636 7 39.1533 6.84533 39.4946 6.536C39.836 6.216 40.0066 5.768 40.0066 5.192C40.0066 3.976 39.3186 3.368 37.9426 3.368H35.9266V7H37.9426ZM45.4422 5.464C45.7089 5.016 46.0609 4.66933 46.4982 4.424C46.9462 4.168 47.4742 4.04 48.0822 4.04V5.928H47.6182C46.9036 5.928 46.3596 6.10933 45.9862 6.472C45.6236 6.83467 45.4422 7.464 45.4422 8.36V13H43.6182V4.184H45.4422V5.464ZM53.5829 13.144C52.7509 13.144 51.9989 12.9573 51.3269 12.584C50.6549 12.2 50.1269 11.6667 49.7429 10.984C49.3589 10.2907 49.1669 9.49067 49.1669 8.584C49.1669 7.688 49.3642 6.89333 49.7589 6.2C50.1535 5.50667 50.6922 4.97333 51.3749 4.6C52.0575 4.22667 52.8202 4.04 53.6629 4.04C54.5055 4.04 55.2682 4.22667 55.9509 4.6C56.6335 4.97333 57.1722 5.50667 57.5669 6.2C57.9615 6.89333 58.1589 7.688 58.1589 8.584C58.1589 9.48 57.9562 10.2747 57.5509 10.968C57.1455 11.6613 56.5909 12.2 55.8869 12.584C55.1935 12.9573 54.4255 13.144 53.5829 13.144ZM53.5829 11.56C54.0522 11.56 54.4895 11.448 54.8949 11.224C55.3109 11 55.6469 10.664 55.9029 10.216C56.1589 9.768 56.2869 9.224 56.2869 8.584C56.2869 7.944 56.1642 7.40533 55.9189 6.968C55.6735 6.52 55.3482 6.184 54.9429 5.96C54.5375 5.736 54.1002 5.624 53.6309 5.624C53.1615 5.624 52.7242 5.736 52.3189 5.96C51.9242 6.184 51.6095 6.52 51.3749 6.968C51.1402 7.40533 51.0229 7.944 51.0229 8.584C51.0229 9.53333 51.2629 10.2693 51.7429 10.792C52.2335 11.304 52.8469 11.56 53.5829 11.56ZM63.658 5.672H62.026V13H60.186V5.672H59.146V4.184H60.186V3.56C60.186 2.54667 60.4527 1.81067 60.986 1.352C61.53 0.882666 62.378 0.648 63.53 0.648V2.168C62.9753 2.168 62.586 2.27467 62.362 2.488C62.138 2.69067 62.026 3.048 62.026 3.56V4.184H63.658V5.672ZM66.2025 3.016C65.8718 3.016 65.5945 2.904 65.3705 2.68C65.1465 2.456 65.0345 2.17867 65.0345 1.848C65.0345 1.51733 65.1465 1.24 65.3705 1.016C65.5945 0.791999 65.8718 0.679999 66.2025 0.679999C66.5225 0.679999 66.7945 0.791999 67.0185 1.016C67.2425 1.24 67.3545 1.51733 67.3545 1.848C67.3545 2.17867 67.2425 2.456 67.0185 2.68C66.7945 2.904 66.5225 3.016 66.2025 3.016ZM67.0985 4.184V13H65.2745V4.184H67.0985ZM71.3172 1.16V13H69.4932V1.16H71.3172ZM81.792 8.376C81.792 8.70667 81.7707 9.00533 81.728 9.272H74.992C75.0453 9.976 75.3067 10.5413 75.776 10.968C76.2453 11.3947 76.8213 11.608 77.504 11.608C78.4853 11.608 79.1787 11.1973 79.584 10.376H81.552C81.2853 11.1867 80.8 11.8533 80.096 12.376C79.4027 12.888 78.5387 13.144 77.504 13.144C76.6613 13.144 75.904 12.9573 75.232 12.584C74.5707 12.2 74.048 11.6667 73.664 10.984C73.2907 10.2907 73.104 9.49067 73.104 8.584C73.104 7.67733 73.2853 6.88267 73.648 6.2C74.0213 5.50667 74.5387 4.97333 75.2 4.6C75.872 4.22667 76.64 4.04 77.504 4.04C78.336 4.04 79.0773 4.22133 79.728 4.584C80.3787 4.94667 80.8853 5.45867 81.248 6.12C81.6107 6.77067 81.792 7.52267 81.792 8.376ZM79.888 7.8C79.8773 7.128 79.6373 6.58933 79.168 6.184C78.6987 5.77867 78.1173 5.576 77.424 5.576C76.7947 5.576 76.256 5.77867 75.808 6.184C75.36 6.57867 75.0933 7.11733 75.008 7.8H79.888Z" fill="#212121"/>
</svg>
