<svg width="131" height="17" viewBox="0 0 131 17" fill="none" xmlns="http://www.w3.org/2000/svg">
<path d="M8.384 0.879999V2.368H5.424V12H3.6V2.368H0.624V0.879999H8.384ZM18.1673 3.184L12.7593 16.144H10.8713L12.6633 11.856L9.19125 3.184H11.2233L13.7033 9.904L16.2793 3.184H18.1673ZM21.3678 4.48C21.6771 4.07467 22.0984 3.73333 22.6318 3.456C23.1651 3.17867 23.7678 3.04 24.4398 3.04C25.2078 3.04 25.9064 3.232 26.5358 3.616C27.1758 3.98933 27.6771 4.51733 28.0398 5.2C28.4024 5.88267 28.5838 6.66667 28.5838 7.552C28.5838 8.43733 28.4024 9.232 28.0398 9.936C27.6771 10.6293 27.1758 11.1733 26.5358 11.568C25.9064 11.952 25.2078 12.144 24.4398 12.144C23.7678 12.144 23.1704 12.0107 22.6478 11.744C22.1251 11.4667 21.6984 11.1253 21.3678 10.72V16.192H19.5438V3.184H21.3678V4.48ZM26.7278 7.552C26.7278 6.944 26.5998 6.42133 26.3438 5.984C26.0984 5.536 25.7678 5.2 25.3518 4.976C24.9464 4.74133 24.5091 4.624 24.0398 4.624C23.5811 4.624 23.1438 4.74133 22.7278 4.976C22.3224 5.21067 21.9918 5.552 21.7358 6C21.4904 6.448 21.3678 6.976 21.3678 7.584C21.3678 8.192 21.4904 8.72533 21.7358 9.184C21.9918 9.632 22.3224 9.97333 22.7278 10.208C23.1438 10.4427 23.5811 10.56 24.0398 10.56C24.5091 10.56 24.9464 10.4427 25.3518 10.208C25.7678 9.96267 26.0984 9.61067 26.3438 9.152C26.5998 8.69333 26.7278 8.16 26.7278 7.552ZM38.4675 7.376C38.4675 7.70667 38.4462 8.00533 38.4035 8.272H31.6675C31.7208 8.976 31.9822 9.54133 32.4515 9.968C32.9208 10.3947 33.4968 10.608 34.1795 10.608C35.1608 10.608 35.8542 10.1973 36.2595 9.376H38.2275C37.9608 10.1867 37.4755 10.8533 36.7715 11.376C36.0782 11.888 35.2142 12.144 34.1795 12.144C33.3368 12.144 32.5795 11.9573 31.9075 11.584C31.2462 11.2 30.7235 10.6667 30.3395 9.984C29.9662 9.29067 29.7795 8.49067 29.7795 7.584C29.7795 6.67733 29.9608 5.88267 30.3235 5.2C30.6968 4.50667 31.2142 3.97333 31.8755 3.6C32.5475 3.22667 33.3155 3.04 34.1795 3.04C35.0115 3.04 35.7528 3.22133 36.4035 3.584C37.0542 3.94667 37.5608 4.45867 37.9235 5.12C38.2862 5.77067 38.4675 6.52267 38.4675 7.376ZM36.5635 6.8C36.5528 6.128 36.3128 5.58933 35.8435 5.184C35.3742 4.77867 34.7928 4.576 34.0995 4.576C33.4702 4.576 32.9315 4.77867 32.4835 5.184C32.0355 5.57867 31.7688 6.11733 31.6835 6.8H36.5635ZM52.3548 3.184L46.9468 16.144H45.0588L46.8508 11.856L43.3788 3.184H45.4108L47.8908 9.904L50.4668 3.184H52.3548ZM57.5553 12.144C56.7233 12.144 55.9713 11.9573 55.2993 11.584C54.6273 11.2 54.0993 10.6667 53.7153 9.984C53.3313 9.29067 53.1393 8.49067 53.1393 7.584C53.1393 6.688 53.3366 5.89333 53.7313 5.2C54.1259 4.50667 54.6646 3.97333 55.3473 3.6C56.0299 3.22667 56.7926 3.04 57.6353 3.04C58.4779 3.04 59.2406 3.22667 59.9233 3.6C60.6059 3.97333 61.1446 4.50667 61.5393 5.2C61.9339 5.89333 62.1313 6.688 62.1313 7.584C62.1313 8.48 61.9286 9.27467 61.5233 9.968C61.1179 10.6613 60.5633 11.2 59.8593 11.584C59.1659 11.9573 58.3979 12.144 57.5553 12.144ZM57.5553 10.56C58.0246 10.56 58.4619 10.448 58.8673 10.224C59.2833 10 59.6193 9.664 59.8753 9.216C60.1313 8.768 60.2593 8.224 60.2593 7.584C60.2593 6.944 60.1366 6.40533 59.8913 5.968C59.6459 5.52 59.3206 5.184 58.9153 4.96C58.5099 4.736 58.0726 4.624 57.6033 4.624C57.1339 4.624 56.6966 4.736 56.2913 4.96C55.8966 5.184 55.5819 5.52 55.3473 5.968C55.1126 6.40533 54.9953 6.944 54.9953 7.584C54.9953 8.53333 55.2353 9.26933 55.7153 9.792C56.2059 10.304 56.8193 10.56 57.5553 10.56ZM71.9184 3.184V12H70.0944V10.96C69.8064 11.3227 69.4277 11.6107 68.9584 11.824C68.4997 12.0267 68.009 12.128 67.4864 12.128C66.793 12.128 66.169 11.984 65.6144 11.696C65.0704 11.408 64.6384 10.9813 64.3184 10.416C64.009 9.85067 63.8544 9.168 63.8544 8.368V3.184H65.6624V8.096C65.6624 8.88533 65.8597 9.49333 66.2544 9.92C66.649 10.336 67.1877 10.544 67.8704 10.544C68.553 10.544 69.0917 10.336 69.4864 9.92C69.8917 9.49333 70.0944 8.88533 70.0944 8.096V3.184H71.9184ZM76.149 4.464C76.4157 4.016 76.7677 3.66933 77.205 3.424C77.653 3.168 78.181 3.04 78.789 3.04V4.928H78.325C77.6103 4.928 77.0663 5.10933 76.693 5.472C76.3303 5.83467 76.149 6.464 76.149 7.36V12H74.325V3.184H76.149V4.464ZM89.0699 3.04C89.7632 3.04 90.3819 3.184 90.9259 3.472C91.4805 3.76 91.9125 4.18667 92.2219 4.752C92.5312 5.31733 92.6859 6 92.6859 6.8V12H90.8779V7.072C90.8779 6.28267 90.6805 5.68 90.2859 5.264C89.8912 4.83733 89.3525 4.624 88.6699 4.624C87.9872 4.624 87.4432 4.83733 87.0379 5.264C86.6432 5.68 86.4459 6.28267 86.4459 7.072V12H84.6219V3.184H86.4459V4.192C86.7445 3.82933 87.1232 3.54667 87.5819 3.344C88.0512 3.14133 88.5472 3.04 89.0699 3.04ZM94.4045 7.552C94.4045 6.66667 94.5858 5.88267 94.9485 5.2C95.3218 4.51733 95.8232 3.98933 96.4525 3.616C97.0925 3.232 97.7965 3.04 98.5645 3.04C99.2578 3.04 99.8605 3.17867 100.373 3.456C100.895 3.72267 101.311 4.05867 101.621 4.464V3.184H103.461V12H101.621V10.688C101.311 11.104 100.89 11.4507 100.357 11.728C99.8232 12.0053 99.2152 12.144 98.5325 12.144C97.7752 12.144 97.0818 11.952 96.4525 11.568C95.8232 11.1733 95.3218 10.6293 94.9485 9.936C94.5858 9.232 94.4045 8.43733 94.4045 7.552ZM101.621 7.584C101.621 6.976 101.493 6.448 101.237 6C100.991 5.552 100.666 5.21067 100.261 4.976C99.8552 4.74133 99.4178 4.624 98.9485 4.624C98.4792 4.624 98.0418 4.74133 97.6365 4.976C97.2312 5.2 96.9005 5.536 96.6445 5.984C96.3992 6.42133 96.2765 6.944 96.2765 7.552C96.2765 8.16 96.3992 8.69333 96.6445 9.152C96.9005 9.61067 97.2312 9.96267 97.6365 10.208C98.0525 10.4427 98.4898 10.56 98.9485 10.56C99.4178 10.56 99.8552 10.4427 100.261 10.208C100.666 9.97333 100.991 9.632 101.237 9.184C101.493 8.72533 101.621 8.192 101.621 7.584ZM116.528 3.04C117.222 3.04 117.84 3.184 118.384 3.472C118.939 3.76 119.371 4.18667 119.68 4.752C120 5.31733 120.16 6 120.16 6.8V12H118.352V7.072C118.352 6.28267 118.155 5.68 117.76 5.264C117.366 4.83733 116.827 4.624 116.144 4.624C115.462 4.624 114.918 4.83733 114.512 5.264C114.118 5.68 113.92 6.28267 113.92 7.072V12H112.112V7.072C112.112 6.28267 111.915 5.68 111.52 5.264C111.126 4.83733 110.587 4.624 109.904 4.624C109.222 4.624 108.678 4.83733 108.272 5.264C107.878 5.68 107.68 6.28267 107.68 7.072V12H105.856V3.184H107.68V4.192C107.979 3.82933 108.358 3.54667 108.816 3.344C109.275 3.14133 109.766 3.04 110.288 3.04C110.992 3.04 111.622 3.18933 112.176 3.488C112.731 3.78667 113.158 4.21867 113.456 4.784C113.723 4.25067 114.139 3.82933 114.704 3.52C115.27 3.2 115.878 3.04 116.528 3.04ZM130.561 7.376C130.561 7.70667 130.54 8.00533 130.497 8.272H123.761C123.815 8.976 124.076 9.54133 124.545 9.968C125.015 10.3947 125.591 10.608 126.273 10.608C127.255 10.608 127.948 10.1973 128.353 9.376H130.321C130.055 10.1867 129.569 10.8533 128.865 11.376C128.172 11.888 127.308 12.144 126.273 12.144C125.431 12.144 124.673 11.9573 124.001 11.584C123.34 11.2 122.817 10.6667 122.433 9.984C122.06 9.29067 121.873 8.49067 121.873 7.584C121.873 6.67733 122.055 5.88267 122.417 5.2C122.791 4.50667 123.308 3.97333 123.969 3.6C124.641 3.22667 125.409 3.04 126.273 3.04C127.105 3.04 127.847 3.22133 128.497 3.584C129.148 3.94667 129.655 4.45867 130.017 5.12C130.38 5.77067 130.561 6.52267 130.561 7.376ZM128.657 6.8C128.647 6.128 128.407 5.58933 127.937 5.184C127.468 4.77867 126.887 4.576 126.193 4.576C125.564 4.576 125.025 4.77867 124.577 5.184C124.129 5.57867 123.863 6.11733 123.777 6.8H128.657Z" fill="#212121" fill-opacity="0.3"/>
</svg>
